<svg xmlns="http://www.w3.org/2000/svg" xmlns:xlink="http://www.w3.org/1999/xlink" width="500" zoomAndPan="magnify" viewBox="0 0 375 262.499992" height="350" preserveAspectRatio="xMidYMid meet" version="1.2"><defs/><g id="d9403b8ccd"><g style="fill:#2e6417;fill-opacity:1;"><g transform="translate(49.054355, 124.888933)"><path style="stroke:none" d="M 27.78125 -34.96875 L 27.78125 -28.046875 C 27.78125 -19.648438 31.710938 -15.316406 39.578125 -15.046875 L 39.578125 2.171875 C 17.171875 2.171875 5.921875 -10.207031 5.828125 -34.96875 Z M 43.640625 2.03125 L 43.640625 -15.171875 C 49.421875 -16.078125 52.3125 -20.503906 52.3125 -28.453125 L 52.3125 -48.78125 C 52.3125 -54.019531 49.421875 -56.910156 43.640625 -57.453125 L 43.640625 -74.265625 C 54.566406 -74.078125 62.488281 -71.816406 67.40625 -67.484375 C 72.332031 -63.148438 74.796875 -56.601562 74.796875 -47.84375 L 74.796875 -26.703125 C 74.796875 -8.898438 64.410156 0.675781 43.640625 2.03125 Z M 39.578125 -73.859375 L 39.578125 -57.453125 C 32.703125 -56.640625 28.5 -53.4375 26.96875 -47.84375 L 6.234375 -48.65625 L 8.9375 -107.328125 L 71.6875 -107.328125 L 71.6875 -89.3125 L 28.59375 -89.3125 L 27.78125 -67.625 C 29.40625 -69.25 31.164062 -70.601562 33.0625 -71.6875 C 34.957031 -72.769531 37.128906 -73.492188 39.578125 -73.859375 Z M 39.578125 -73.859375 "/></g></g><g style="fill:#a6a6a6;fill-opacity:1;"><g transform="translate(129.968817, 124.888933)"><path style="stroke:none" d="M 6.78125 0 L 6.78125 -107.328125 L 32.125 -107.328125 L 32.125 0 Z M 6.78125 0 "/></g></g><g style="fill:#a6a6a6;fill-opacity:1;"><g transform="translate(168.857659, 124.888933)"><path style="stroke:none" d="M 60.578125 -107.328125 L 85.234375 -107.328125 L 55.96875 0 L 46.34375 -39.15625 Z M 25.484375 -107.328125 L 50.953125 0 L 30.625 0 L 0.953125 -107.328125 Z M 25.484375 -107.328125 "/></g></g><g style="fill:#a6a6a6;fill-opacity:1;"><g transform="translate(254.358915, 124.888933)"><path style="stroke:none" d="M 35.375 -46.890625 L 35.375 -64.78125 L 65.71875 -64.78125 L 65.71875 -46.890625 Z M 35.375 -89.3125 L 35.375 -107.328125 L 67.625 -107.328125 L 67.625 -89.3125 Z M 67.625 -18.5625 L 67.625 0 L 35.375 0 L 35.375 -18.5625 Z M 6.78125 -107.328125 L 31.578125 -107.328125 L 31.578125 0 L 6.78125 0 Z M 6.78125 -107.328125 "/></g></g><g style="fill:#2e6417;fill-opacity:1;"><g transform="translate(6.193199, 229.812596)"><path style="stroke:none" d="M 0.671875 -55 L 0.671875 -68.765625 L 49 -68.765625 L 49 -55 L 32.671875 -55 L 32.671875 0 L 17 0 L 17 -55 Z M 0.671875 -55 "/></g></g><g style="fill:#2e6417;fill-opacity:1;"><g transform="translate(55.864475, 229.812596)"><path style="stroke:none" d="M 5 -68.765625 L 29.59375 -68.765625 C 36.195312 -68.765625 41.582031 -67 45.75 -63.46875 C 49.914062 -59.9375 52 -54.894531 52 -48.34375 C 52 -43.28125 50.734375 -39.039062 48.203125 -35.625 C 45.679688 -32.207031 42.253906 -29.804688 37.921875 -28.421875 L 61.59375 0 L 41.671875 0 L 20.671875 -27.171875 L 20.671875 0 L 5 0 Z M 20.671875 -38.25 L 22.5 -38.25 C 23.945312 -38.25 25.171875 -38.273438 26.171875 -38.328125 C 27.171875 -38.390625 28.304688 -38.585938 29.578125 -38.921875 C 30.859375 -39.253906 31.890625 -39.722656 32.671875 -40.328125 C 33.453125 -40.941406 34.117188 -41.832031 34.671875 -43 C 35.222656 -44.164062 35.5 -45.582031 35.5 -47.25 C 35.5 -48.914062 35.222656 -50.332031 34.671875 -51.5 C 34.117188 -52.664062 33.453125 -53.554688 32.671875 -54.171875 C 31.890625 -54.785156 30.859375 -55.257812 29.578125 -55.59375 C 28.304688 -55.925781 27.171875 -56.117188 26.171875 -56.171875 C 25.171875 -56.222656 23.945312 -56.25 22.5 -56.25 L 20.671875 -56.25 Z M 20.671875 -38.25 "/></g></g><g style="fill:#2e6417;fill-opacity:1;"><g transform="translate(115.536674, 229.812596)"><path style="stroke:none" d="M 39.921875 -68.765625 L 67.671875 0 L 50.84375 0 L 45.75 -13.75 L 19.578125 -13.75 L 14.5 0 L -2.328125 0 L 25.421875 -68.765625 Z M 40.421875 -27.5 L 32.75 -47.5 L 32.59375 -47.5 L 24.921875 -27.5 Z M 40.421875 -27.5 "/></g></g><g style="fill:#2e6417;fill-opacity:1;"><g transform="translate(178.209097, 229.812596)"><path style="stroke:none" d="M 41.59375 -14.171875 C 43.976562 -14.171875 46.296875 -14.53125 48.546875 -15.25 C 50.796875 -15.96875 52.445312 -16.660156 53.5 -17.328125 L 55.09375 -18.421875 L 61.75 -5.078125 C 61.53125 -4.910156 61.222656 -4.6875 60.828125 -4.40625 C 60.441406 -4.132812 59.539062 -3.625 58.125 -2.875 C 56.707031 -2.125 55.191406 -1.46875 53.578125 -0.90625 C 51.972656 -0.351562 49.863281 0.140625 47.25 0.578125 C 44.644531 1.023438 41.953125 1.25 39.171875 1.25 C 32.785156 1.25 26.726562 -0.316406 21 -3.453125 C 15.28125 -6.597656 10.671875 -10.921875 7.171875 -16.421875 C 3.671875 -21.921875 1.921875 -27.863281 1.921875 -34.25 C 1.921875 -39.082031 2.945312 -43.722656 5 -48.171875 C 7.050781 -52.617188 9.785156 -56.425781 13.203125 -59.59375 C 16.617188 -62.757812 20.601562 -65.285156 25.15625 -67.171875 C 29.71875 -69.066406 34.390625 -70.015625 39.171875 -70.015625 C 43.617188 -70.015625 47.71875 -69.484375 51.46875 -68.421875 C 55.21875 -67.367188 57.867188 -66.316406 59.421875 -65.265625 L 61.75 -63.671875 L 55.09375 -50.34375 C 54.695312 -50.675781 54.109375 -51.078125 53.328125 -51.546875 C 52.554688 -52.015625 51.003906 -52.640625 48.671875 -53.421875 C 46.335938 -54.203125 43.976562 -54.59375 41.59375 -54.59375 C 37.8125 -54.59375 34.421875 -53.976562 31.421875 -52.75 C 28.421875 -51.53125 26.046875 -49.921875 24.296875 -47.921875 C 22.546875 -45.921875 21.210938 -43.765625 20.296875 -41.453125 C 19.378906 -39.148438 18.921875 -36.804688 18.921875 -34.421875 C 18.921875 -29.203125 20.878906 -24.519531 24.796875 -20.375 C 28.710938 -16.238281 34.3125 -14.171875 41.59375 -14.171875 Z M 41.59375 -14.171875 "/></g></g><g style="fill:#2e6417;fill-opacity:1;"><g transform="translate(240.964922, 229.812596)"><path style="stroke:none" d="M 67.59375 0 L 46 0 L 20.671875 -29.171875 L 20.671875 0 L 5 0 L 5 -68.765625 L 20.671875 -68.765625 L 20.671875 -40.671875 L 44.25 -68.765625 L 63.265625 -68.765625 L 35.59375 -36.171875 Z M 67.59375 0 "/></g></g><g style="fill:#a6a6a6;fill-opacity:1;"><g transform="translate(306.556364, 229.812596)"><path style="stroke:none" d="M 5 -68.765625 L 29.59375 -68.765625 C 36.195312 -68.765625 41.582031 -67 45.75 -63.46875 C 49.914062 -59.9375 52 -54.894531 52 -48.34375 C 52 -43.28125 50.734375 -39.039062 48.203125 -35.625 C 45.679688 -32.207031 42.253906 -29.804688 37.921875 -28.421875 L 61.59375 0 L 41.671875 0 L 20.671875 -27.171875 L 20.671875 0 L 5 0 Z M 20.671875 -38.25 L 22.5 -38.25 C 23.945312 -38.25 25.171875 -38.273438 26.171875 -38.328125 C 27.171875 -38.390625 28.304688 -38.585938 29.578125 -38.921875 C 30.859375 -39.253906 31.890625 -39.722656 32.671875 -40.328125 C 33.453125 -40.941406 34.117188 -41.832031 34.671875 -43 C 35.222656 -44.164062 35.5 -45.582031 35.5 -47.25 C 35.5 -48.914062 35.222656 -50.332031 34.671875 -51.5 C 34.117188 -52.664062 33.453125 -53.554688 32.671875 -54.171875 C 31.890625 -54.785156 30.859375 -55.257812 29.578125 -55.59375 C 28.304688 -55.925781 27.171875 -56.117188 26.171875 -56.171875 C 25.171875 -56.222656 23.945312 -56.25 22.5 -56.25 L 20.671875 -56.25 Z M 20.671875 -38.25 "/></g></g></g></svg>